<svg width="63" height="60" viewBox="0 0 63 60" fill="none" xmlns="http://www.w3.org/2000/svg">
<circle cx="30" cy="30" r="30" fill="#212121" fill-opacity="0.2"/>
<mask id="mask0_1_60" style="mask-type:alpha" maskUnits="userSpaceOnUse" x="3" y="0" width="60" height="60">
<rect x="3" width="60" height="60" fill="#D9D9D9"/>
</mask>
<g mask="url(#mask0_1_60)">
<path d="M34.5 30L24.75 20.25C24.2917 19.7917 24.0625 19.2083 24.0625 18.5C24.0625 17.7917 24.2917 17.2083 24.75 16.75C25.2083 16.2917 25.7917 16.0625 26.5 16.0625C27.2083 16.0625 27.7917 16.2917 28.25 16.75L39.75 28.25C40 28.5 40.1771 28.7708 40.2813 29.0625C40.3854 29.3542 40.4375 29.6667 40.4375 30C40.4375 30.3333 40.3854 30.6458 40.2813 30.9375C40.1771 31.2292 40 31.5 39.75 31.75L28.25 43.25C27.7917 43.7083 27.2083 43.9375 26.5 43.9375C25.7917 43.9375 25.2083 43.7083 24.75 43.25C24.2917 42.7917 24.0625 42.2083 24.0625 41.5C24.0625 40.7917 24.2917 40.2083 24.75 39.75L34.5 30Z" fill="white"/>
</g>
</svg>
