<svg width="60" height="60" viewBox="0 0 60 60" fill="none" xmlns="http://www.w3.org/2000/svg">
<circle cx="30" cy="30" r="30" fill="#212121" fill-opacity="0.2"/>
<path d="M24.9375 29.9375L34.6875 39.6875C35.1458 40.1458 35.375 40.7292 35.375 41.4375C35.375 42.1458 35.1458 42.7292 34.6875 43.1875C34.2292 43.6458 33.6458 43.875 32.9375 43.875C32.2292 43.875 31.6458 43.6458 31.1875 43.1875L19.6875 31.6875C19.4375 31.4375 19.2604 31.1667 19.1563 30.875C19.0521 30.5833 19 30.2708 19 29.9375C19 29.6042 19.0521 29.2917 19.1563 29C19.2604 28.7083 19.4375 28.4375 19.6875 28.1875L31.1875 16.6875C31.6458 16.2292 32.2292 16 32.9375 16C33.6458 16 34.2292 16.2292 34.6875 16.6875C35.1458 17.1458 35.375 17.7292 35.375 18.4375C35.375 19.1458 35.1458 19.7292 34.6875 20.1875L24.9375 29.9375Z" fill="white"/>
<mask id="mask0_148_2575" style="mask-type:alpha" maskUnits="userSpaceOnUse" x="0" y="0" width="60" height="60">
<rect x="60" y="60" width="60" height="60" transform="rotate(-180 60 60)" fill="#D9D9D9"/>
</mask>
<g mask="url(#mask0_148_2575)">
</g>
</svg>
