<svg width="16" height="16" viewBox="0 0 16 16" fill="none" xmlns="http://www.w3.org/2000/svg">
<g clip-path="url(#clip0_144_2139)">
<mask id="mask0_144_2139" style="mask-type:alpha" maskUnits="userSpaceOnUse" x="0" y="0" width="16" height="16">
<rect width="16" height="16" fill="#D9D9D9"/>
</mask>
<g mask="url(#mask0_144_2139)">
<path d="M8.00004 13.5499C7.84448 13.5499 7.68615 13.5222 7.52504 13.4666C7.36393 13.411 7.22226 13.3222 7.10004 13.1999L5.95004 12.1499C4.77226 11.0722 3.70837 10.0027 2.75837 8.9416C1.80837 7.88049 1.33337 6.71105 1.33337 5.43327C1.33337 4.38882 1.68337 3.5166 2.38337 2.8166C3.08337 2.1166 3.9556 1.7666 5.00004 1.7666C5.58893 1.7666 6.14448 1.8916 6.66671 2.1416C7.18893 2.3916 7.63337 2.73327 8.00004 3.1666C8.36671 2.73327 8.81115 2.3916 9.33337 2.1416C9.8556 1.8916 10.4112 1.7666 11 1.7666C12.0445 1.7666 12.9167 2.1166 13.6167 2.8166C14.3167 3.5166 14.6667 4.38882 14.6667 5.43327C14.6667 6.71105 14.1945 7.88327 13.25 8.94993C12.3056 10.0166 11.2334 11.0888 10.0334 12.1666L8.90004 13.1999C8.77782 13.3222 8.63615 13.411 8.47504 13.4666C8.31393 13.5222 8.1556 13.5499 8.00004 13.5499Z" fill="#212121"/>
</g>
</g>
<defs>
<clipPath id="clip0_144_2139">
<rect width="16" height="16" fill="white"/>
</clipPath>
</defs>
</svg>
