<svg width="225" height="37" viewBox="0 0 225 37" fill="none" xmlns="http://www.w3.org/2000/svg">
<path d="M15.7085 1.968H22.9565L26.5085 12.864L30.0605 1.968H37.3565L31.5485 17.808L35.0045 26.88L43.5485 1.92H52.1405L38.8445 36H32.0285L26.5085 22.656L21.0365 36H14.1725L0.924502 1.92H9.4685L18.0605 26.88L21.4205 17.808L15.7085 1.968ZM63.1556 36.48C61.0116 36.48 59.0916 36.128 57.3956 35.424C55.7316 34.72 54.3236 33.76 53.1716 32.544C52.0196 31.328 51.1396 29.936 50.5316 28.368C49.9556 26.8 49.6676 25.152 49.6676 23.424C49.6676 21.664 49.9556 20 50.5316 18.432C51.1396 16.864 52.0196 15.472 53.1716 14.256C54.3236 13.04 55.7316 12.08 57.3956 11.376C59.0916 10.672 61.0116 10.32 63.1556 10.32C65.2996 10.32 67.2036 10.672 68.8676 11.376C70.5316 12.08 71.9396 13.04 73.0916 14.256C74.2436 15.472 75.1236 16.864 75.7316 18.432C76.3396 20 76.6436 21.664 76.6436 23.424C76.6436 25.152 76.3396 26.8 75.7316 28.368C75.1236 29.936 74.2436 31.328 73.0916 32.544C71.9396 33.76 70.5316 34.72 68.8676 35.424C67.2036 36.128 65.2996 36.48 63.1556 36.48ZM57.5396 23.424C57.5396 24.736 57.7796 25.888 58.2596 26.88C58.7716 27.872 59.4436 28.64 60.2756 29.184C61.1076 29.728 62.0676 30 63.1556 30C64.2116 30 65.1556 29.728 65.9876 29.184C66.8516 28.608 67.5236 27.824 68.0036 26.832C68.4836 25.84 68.7236 24.704 68.7236 23.424C68.7236 22.112 68.4836 20.96 68.0036 19.968C67.5236 18.976 66.8516 18.208 65.9876 17.664C65.1556 17.12 64.2116 16.848 63.1556 16.848C62.0676 16.848 61.1076 17.12 60.2756 17.664C59.4436 18.208 58.7716 18.976 58.2596 19.968C57.7796 20.96 57.5396 22.112 57.5396 23.424ZM104.841 36H97.1605V21.84C97.1605 20.176 96.8405 18.976 96.2005 18.24C95.5925 17.472 94.7765 17.088 93.7525 17.088C93.0485 17.088 92.3285 17.28 91.5925 17.664C90.8565 18.048 90.1845 18.576 89.5765 19.248C89.0005 19.92 88.5525 20.688 88.2325 21.552V36H80.5525V10.8H87.4645V15.024C88.1045 14.032 88.9045 13.184 89.8645 12.48C90.8245 11.776 91.9285 11.248 93.1765 10.896C94.4245 10.512 95.7845 10.32 97.2565 10.32C98.8885 10.32 100.2 10.624 101.192 11.232C102.216 11.808 102.984 12.576 103.497 13.536C104.04 14.496 104.392 15.536 104.552 16.656C104.745 17.744 104.841 18.816 104.841 19.872V36ZM110.48 36V1.92H125.024C126.656 1.92 128.144 2.256 129.488 2.928C130.864 3.568 132.048 4.448 133.04 5.568C134.032 6.656 134.8 7.888 135.344 9.264C135.888 10.64 136.16 12.048 136.16 13.488C136.16 15.44 135.696 17.296 134.768 19.056C133.872 20.816 132.608 22.256 130.976 23.376C129.376 24.464 127.472 25.008 125.264 25.008H118.352V36H110.48ZM118.352 18.144H124.784C125.392 18.144 125.952 17.968 126.464 17.616C126.976 17.264 127.392 16.736 127.712 16.032C128.032 15.328 128.192 14.464 128.192 13.44C128.192 12.384 128 11.52 127.616 10.848C127.264 10.144 126.8 9.632 126.224 9.312C125.68 8.992 125.104 8.832 124.496 8.832H118.352V18.144ZM155.846 17.376C153.99 17.376 152.31 17.68 150.806 18.288C149.302 18.864 148.214 19.728 147.542 20.88V36H139.862V10.8H146.918V15.888C147.782 14.192 148.902 12.864 150.278 11.904C151.654 10.944 153.094 10.448 154.598 10.416C154.95 10.416 155.206 10.416 155.366 10.416C155.558 10.416 155.718 10.432 155.846 10.464V17.376ZM159.181 36V10.8H166.861V36H159.181ZM159.181 7.92V0.959999H166.861V7.92H159.181ZM184.266 36.48C182.122 36.48 180.218 36.128 178.554 35.424C176.89 34.72 175.466 33.76 174.282 32.544C173.13 31.328 172.25 29.936 171.642 28.368C171.034 26.8 170.73 25.136 170.73 23.376C170.73 21.072 171.258 18.928 172.314 16.944C173.402 14.96 174.954 13.36 176.97 12.144C178.986 10.928 181.418 10.32 184.266 10.32C187.146 10.32 189.578 10.944 191.562 12.192C193.578 13.408 195.082 15.008 196.074 16.992L188.586 19.248C188.106 18.48 187.482 17.888 186.714 17.472C185.978 17.056 185.146 16.848 184.218 16.848C183.162 16.848 182.202 17.12 181.338 17.664C180.506 18.208 179.834 18.96 179.322 19.92C178.842 20.88 178.602 22.032 178.602 23.376C178.602 24.688 178.858 25.84 179.37 26.832C179.882 27.824 180.554 28.608 181.386 29.184C182.218 29.728 183.162 30 184.218 30C184.858 30 185.45 29.904 185.994 29.712C186.57 29.488 187.082 29.184 187.53 28.8C188.01 28.416 188.378 27.984 188.634 27.504L196.122 29.808C195.514 31.088 194.634 32.24 193.482 33.264C192.362 34.256 191.034 35.04 189.498 35.616C187.962 36.192 186.218 36.48 184.266 36.48ZM211.507 36.48C209.363 36.48 207.459 36.144 205.795 35.472C204.131 34.768 202.707 33.824 201.523 32.64C200.371 31.456 199.491 30.096 198.883 28.56C198.275 26.992 197.971 25.36 197.971 23.664C197.971 21.232 198.499 19.024 199.555 17.04C200.643 15.024 202.195 13.408 204.211 12.192C206.227 10.944 208.659 10.32 211.507 10.32C214.355 10.32 216.771 10.928 218.755 12.144C220.771 13.36 222.307 14.96 223.363 16.944C224.419 18.896 224.947 21.024 224.947 23.328C224.947 23.776 224.915 24.224 224.851 24.672C224.819 25.088 224.787 25.456 224.755 25.776H206.131C206.227 26.896 206.531 27.84 207.043 28.608C207.587 29.376 208.275 29.968 209.107 30.384C209.939 30.768 210.819 30.96 211.747 30.96C212.899 30.96 213.971 30.688 214.963 30.144C215.987 29.6 216.691 28.864 217.075 27.936L223.603 29.76C222.963 31.072 222.051 32.24 220.867 33.264C219.715 34.256 218.339 35.04 216.739 35.616C215.171 36.192 213.427 36.48 211.507 36.48ZM205.939 21.072H216.883C216.755 20.016 216.451 19.104 215.971 18.336C215.491 17.536 214.851 16.928 214.051 16.512C213.251 16.064 212.371 15.84 211.411 15.84C210.419 15.84 209.523 16.064 208.723 16.512C207.955 16.928 207.331 17.536 206.851 18.336C206.371 19.104 206.067 20.016 205.939 21.072Z" fill="#252B42"/>
</svg>
