<svg width="16" height="16" viewBox="0 0 16 16" fill="none" xmlns="http://www.w3.org/2000/svg">
<g clip-path="url(#clip0_144_2037)">
<path fill-rule="evenodd" clip-rule="evenodd" d="M11.5187 10.3188L15.8225 14.6226C15.9737 14.7739 16.0587 14.9792 16.0586 15.1932C16.0585 15.4072 15.9734 15.6124 15.8221 15.7637C15.6707 15.915 15.4654 15.9999 15.2514 15.9998C15.0374 15.9998 14.8322 15.9147 14.6809 15.7633L10.3771 11.4595C9.09054 12.456 7.47267 12.9249 5.85262 12.7709C4.23258 12.6169 2.73205 11.8515 1.6563 10.6304C0.580551 9.40936 0.0103839 7.82433 0.0617907 6.19779C0.113197 4.57125 0.782316 3.02539 1.93303 1.87468C3.08374 0.723966 4.6296 0.0548478 6.25614 0.00344105C7.88268 -0.0479657 9.46771 0.522201 10.6888 1.59795C11.9099 2.6737 12.6753 4.17423 12.8293 5.79427C12.9833 7.41432 12.5144 9.03219 11.5179 10.3188H11.5187ZM6.45889 11.1995C7.73187 11.1995 8.95271 10.6938 9.85285 9.7937C10.753 8.89356 11.2587 7.67272 11.2587 6.39974C11.2587 5.12676 10.753 3.90592 9.85285 3.00579C8.95271 2.10565 7.73187 1.59997 6.45889 1.59997C5.18591 1.59997 3.96507 2.10565 3.06494 3.00579C2.1648 3.90592 1.65911 5.12676 1.65911 6.39974C1.65911 7.67272 2.1648 8.89356 3.06494 9.7937C3.96507 10.6938 5.18591 11.1995 6.45889 11.1995Z" fill="#737373"/>
</g>
<defs>
<clipPath id="clip0_144_2037">
<rect width="16" height="16" fill="white" transform="translate(0.0585938)"/>
</clipPath>
</defs>
</svg>
