<svg width="24" height="24" viewBox="0 0 24 24" fill="none" xmlns="http://www.w3.org/2000/svg">
<mask id="mask0_830_800" style="mask-type:alpha" maskUnits="userSpaceOnUse" x="0" y="0" width="24" height="24">
<rect width="24" height="24" fill="#D9D9D9"/>
</mask>
<g mask="url(#mask0_830_800)">
<path d="M12 14.975C11.8667 14.975 11.7417 14.9542 11.625 14.9125C11.5083 14.8709 11.4 14.8 11.3 14.7L6.7 10.1C6.51667 9.91672 6.425 9.68338 6.425 9.40005C6.425 9.11672 6.51667 8.88338 6.7 8.70005C6.88334 8.51672 7.11667 8.42505 7.4 8.42505C7.68334 8.42505 7.91667 8.51672 8.1 8.70005L12 12.6L15.9 8.70005C16.0833 8.51672 16.3167 8.42505 16.6 8.42505C16.8833 8.42505 17.1167 8.51672 17.3 8.70005C17.4833 8.88338 17.575 9.11672 17.575 9.40005C17.575 9.68338 17.4833 9.91672 17.3 10.1L12.7 14.7C12.6 14.8 12.4917 14.8709 12.375 14.9125C12.2583 14.9542 12.1333 14.975 12 14.975Z" fill="#1C1B1F"/>
</g>
</svg>
