<svg width="48" height="48" viewBox="0 0 48 48" fill="none" xmlns="http://www.w3.org/2000/svg">
<mask id="mask0_144_2118" style="mask-type:alpha" maskUnits="userSpaceOnUse" x="0" y="0" width="48" height="48">
<rect width="48" height="48" fill="#D9D9D9"/>
</mask>
<g mask="url(#mask0_144_2118)">
<path d="M10 42C8.9 42 7.95833 41.6083 7.175 40.825C6.39167 40.0417 6 39.1 6 38V10C6 8.9 6.39167 7.95833 7.175 7.175C7.95833 6.39167 8.9 6 10 6H38C39.1 6 40.0417 6.39167 40.825 7.175C41.6083 7.95833 42 8.9 42 10V38C42 39.1 41.6083 40.0417 40.825 40.825C40.0417 41.6083 39.1 42 38 42H10ZM12 25.15L18.6 18.55C19 18.15 19.4667 17.95 20 17.95C20.5333 17.95 21 18.15 21.4 18.55L28 25.15L34.6 18.55C35 18.15 35.4667 17.95 36 17.95C36.5333 17.95 37 18.15 37.4 18.55L38 19.15V10H10V23.15L12 25.15ZM10 38H38V24.8L36 22.8L29.4 29.4C29 29.8 28.5333 30 28 30C27.4667 30 27 29.8 26.6 29.4L20 22.8L13.4 29.4C13 29.8 12.5333 30 12 30C11.4667 30 11 29.8 10.6 29.4L10 28.8V38ZM10 38V24.8V28.8V10V38Z" fill="#BDBDBD"/>
</g>
</svg>
