<svg width="24" height="24" viewBox="0 0 24 24" fill="none" xmlns="http://www.w3.org/2000/svg">
<mask id="mask0_700_788" style="mask-type:alpha" maskUnits="userSpaceOnUse" x="0" y="0" width="24" height="24">
<rect width="24" height="24" fill="#D9D9D9"/>
</mask>
<g mask="url(#mask0_700_788)">
<path d="M12 16C13.25 16 14.3125 15.5625 15.1875 14.6875C16.0625 13.8125 16.5 12.75 16.5 11.5C16.5 10.25 16.0625 9.1875 15.1875 8.3125C14.3125 7.4375 13.25 7 12 7C10.75 7 9.68749 7.4375 8.81249 8.3125C7.93749 9.1875 7.49999 10.25 7.49999 11.5C7.49999 12.75 7.93749 13.8125 8.81249 14.6875C9.68749 15.5625 10.75 16 12 16ZM12 14.2C11.25 14.2 10.6125 13.9375 10.0875 13.4125C9.56249 12.8875 9.29999 12.25 9.29999 11.5C9.29999 10.75 9.56249 10.1125 10.0875 9.5875C10.6125 9.0625 11.25 8.8 12 8.8C12.75 8.8 13.3875 9.0625 13.9125 9.5875C14.4375 10.1125 14.7 10.75 14.7 11.5C14.7 12.25 14.4375 12.8875 13.9125 13.4125C13.3875 13.9375 12.75 14.2 12 14.2ZM12 19C9.68332 19 7.56665 18.3875 5.64999 17.1625C3.73332 15.9375 2.28332 14.2833 1.29999 12.2C1.24999 12.1167 1.21665 12.0125 1.19999 11.8875C1.18332 11.7625 1.17499 11.6333 1.17499 11.5C1.17499 11.3667 1.18332 11.2375 1.19999 11.1125C1.21665 10.9875 1.24999 10.8833 1.29999 10.8C2.28332 8.71667 3.73332 7.0625 5.64999 5.8375C7.56665 4.6125 9.68332 4 12 4C14.3167 4 16.4333 4.6125 18.35 5.8375C20.2667 7.0625 21.7167 8.71667 22.7 10.8C22.75 10.8833 22.7833 10.9875 22.8 11.1125C22.8167 11.2375 22.825 11.3667 22.825 11.5C22.825 11.6333 22.8167 11.7625 22.8 11.8875C22.7833 12.0125 22.75 12.1167 22.7 12.2C21.7167 14.2833 20.2667 15.9375 18.35 17.1625C16.4333 18.3875 14.3167 19 12 19Z" fill="#1C1B1F"/>
</g>
</svg>
