<svg xmlns="http://www.w3.org/2000/svg" width="83" height="82" viewBox="0 0 83 82" fill="none">
  <circle cx="41.5" cy="41" r="41" fill="#FFCD57"/>
  <mask id="mask0_150_342" style="mask-type:alpha" maskUnits="userSpaceOnUse" x="16" y="16" width="51" height="50">
    <rect x="16.5" y="16" width="50" height="50" fill="#D9D9D9"/>
  </mask>
  <g mask="url(#mask0_150_342)">
    <path d="M41.5002 26.4167C40.9099 26.4167 40.4151 26.217 40.0158 25.8177C39.6165 25.4184 39.4168 24.9236 39.4168 24.3333V20.1667C39.4168 19.5764 39.6165 19.0816 40.0158 18.6823C40.4151 18.283 40.9099 18.0833 41.5002 18.0833C42.0904 18.0833 42.5852 18.283 42.9845 18.6823C43.3838 19.0816 43.5835 19.5764 43.5835 20.1667V24.3333C43.5835 24.9236 43.3838 25.4184 42.9845 25.8177C42.5852 26.217 42.0904 26.4167 41.5002 26.4167ZM51.8127 30.6875C51.4307 30.3056 51.2397 29.8281 51.2397 29.2552C51.2397 28.6823 51.4307 28.1875 51.8127 27.7708L54.7293 24.8021C55.146 24.3854 55.6408 24.1771 56.2137 24.1771C56.7866 24.1771 57.2814 24.3854 57.6981 24.8021C58.08 25.184 58.271 25.6701 58.271 26.2604C58.271 26.8507 58.08 27.3368 57.6981 27.7187L54.7293 30.6875C54.3474 31.0694 53.8613 31.2604 53.271 31.2604C52.6807 31.2604 52.1946 31.0694 51.8127 30.6875ZM58.1668 43.0833C57.5765 43.0833 57.0818 42.8837 56.6825 42.4844C56.2831 42.0851 56.0835 41.5903 56.0835 41C56.0835 40.4097 56.2831 39.9149 56.6825 39.5156C57.0818 39.1163 57.5765 38.9167 58.1668 38.9167H62.3335C62.9238 38.9167 63.4186 39.1163 63.8179 39.5156C64.2172 39.9149 64.4168 40.4097 64.4168 41C64.4168 41.5903 64.2172 42.0851 63.8179 42.4844C63.4186 42.8837 62.9238 43.0833 62.3335 43.0833H58.1668ZM41.5002 63.9167C40.9099 63.9167 40.4151 63.717 40.0158 63.3177C39.6165 62.9184 39.4168 62.4236 39.4168 61.8333V57.6667C39.4168 57.0764 39.6165 56.5816 40.0158 56.1823C40.4151 55.783 40.9099 55.5833 41.5002 55.5833C42.0904 55.5833 42.5852 55.783 42.9845 56.1823C43.3838 56.5816 43.5835 57.0764 43.5835 57.6667V61.8333C43.5835 62.4236 43.3838 62.9184 42.9845 63.3177C42.5852 63.717 42.0904 63.9167 41.5002 63.9167ZM28.271 30.6875L25.3022 27.7708C24.8856 27.3542 24.6772 26.8507 24.6772 26.2604C24.6772 25.6701 24.8856 25.184 25.3022 24.8021C25.6842 24.4201 26.1703 24.2292 26.7606 24.2292C27.3509 24.2292 27.837 24.4201 28.2189 24.8021L31.1877 27.7708C31.5696 28.1528 31.7606 28.6389 31.7606 29.2292C31.7606 29.8194 31.5696 30.3056 31.1877 30.6875C30.771 31.0694 30.2849 31.2604 29.7293 31.2604C29.1738 31.2604 28.6877 31.0694 28.271 30.6875ZM54.7293 57.1979L51.8127 54.2292C51.4307 53.8125 51.2397 53.3177 51.2397 52.7448C51.2397 52.1719 51.4307 51.6944 51.8127 51.3125C52.1946 50.9305 52.672 50.7396 53.245 50.7396C53.8179 50.7396 54.3127 50.9305 54.7293 51.3125L57.6981 54.2292C58.1147 54.6111 58.3144 55.0972 58.297 55.6875C58.2797 56.2778 58.08 56.7812 57.6981 57.1979C57.2814 57.6146 56.7779 57.8229 56.1877 57.8229C55.5974 57.8229 55.1113 57.6146 54.7293 57.1979ZM20.6668 43.0833C20.0766 43.0833 19.5818 42.8837 19.1825 42.4844C18.7831 42.0851 18.5835 41.5903 18.5835 41C18.5835 40.4097 18.7831 39.9149 19.1825 39.5156C19.5818 39.1163 20.0766 38.9167 20.6668 38.9167H24.8335C25.4238 38.9167 25.9186 39.1163 26.3179 39.5156C26.7172 39.9149 26.9168 40.4097 26.9168 41C26.9168 41.5903 26.7172 42.0851 26.3179 42.4844C25.9186 42.8837 25.4238 43.0833 24.8335 43.0833H20.6668ZM25.3022 57.1979C24.9203 56.816 24.7293 56.3299 24.7293 55.7396C24.7293 55.1493 24.9203 54.6632 25.3022 54.2812L28.271 51.3125C28.6529 50.9305 29.1304 50.7396 29.7033 50.7396C30.2762 50.7396 30.771 50.9305 31.1877 51.3125C31.6043 51.7292 31.8127 52.224 31.8127 52.7969C31.8127 53.3698 31.6043 53.8646 31.1877 54.2812L28.271 57.1979C27.8543 57.6146 27.3509 57.8229 26.7606 57.8229C26.1703 57.8229 25.6842 57.6146 25.3022 57.1979ZM41.5002 53.5C38.0279 53.5 35.0766 52.2847 32.646 49.8542C30.2154 47.4236 29.0002 44.4722 29.0002 41C29.0002 37.5278 30.2154 34.5764 32.646 32.1458C35.0766 29.7153 38.0279 28.5 41.5002 28.5C44.9724 28.5 47.9238 29.7153 50.3543 32.1458C52.7849 34.5764 54.0002 37.5278 54.0002 41C54.0002 44.4722 52.7849 47.4236 50.3543 49.8542C47.9238 52.2847 44.9724 53.5 41.5002 53.5ZM41.5002 49.3333C43.7918 49.3333 45.7536 48.5174 47.3856 46.8854C49.0175 45.2535 49.8335 43.2917 49.8335 41C49.8335 38.7083 49.0175 36.7465 47.3856 35.1146C45.7536 33.4826 43.7918 32.6667 41.5002 32.6667C39.2085 32.6667 37.2467 33.4826 35.6147 35.1146C33.9828 36.7465 33.1668 38.7083 33.1668 41C33.1668 43.2917 33.9828 45.2535 35.6147 46.8854C37.2467 48.5174 39.2085 49.3333 41.5002 49.3333Z" fill="white"/>
  </g>
</svg>